<svg xmlns="http://www.w3.org/2000/svg" xmlns:xlink="http://www.w3.org/1999/xlink" width="500" zoomAndPan="magnify" viewBox="0 0 375 374.999991" height="500" preserveAspectRatio="xMidYMid meet" version="1.2"><defs><clipPath id="abce97b5c9"><path d="M 254 254 L 283.695312 254 L 283.695312 283.695312 L 254 283.695312 Z M 254 254 "/></clipPath><clipPath id="2f451a7c10"><path d="M 90.945312 176 L 162 176 L 162 248 L 90.945312 248 Z M 90.945312 176 "/></clipPath><clipPath id="2440c8fdde"><path d="M 176 90.945312 L 248 90.945312 L 248 162 L 176 162 Z M 176 90.945312 "/></clipPath></defs><g id="9472a75131"><path style=" stroke:none;fill-rule:nonzero;fill:#442f00;fill-opacity:1;" d="M 275.375 256.648438 L 256.984375 275.707031 L 182.761719 201.484375 L 201.484375 182.761719 Z M 275.375 256.648438 "/><path style=" stroke:none;fill-rule:nonzero;fill:#7f5603;fill-opacity:1;" d="M 232.578125 252.636719 L 226.84375 247.050781 C 225.851562 245.988281 225.65625 245.617188 226.070312 244.777344 L 237.828125 219.476562 C 238.242188 218.636719 238.761719 218.699219 239.261719 219.207031 L 245.714844 225.464844 C 246.28125 226.222656 246.902344 226.898438 246.488281 227.738281 L 234.0625 252.367188 C 233.648438 253.210938 233.246094 253.304688 232.578125 252.636719 Z M 232.578125 252.636719 "/><path style=" stroke:none;fill-rule:nonzero;fill:#7f5603;fill-opacity:1;" d="M 241.269531 261.328125 L 234.871094 255.074219 C 233.875 254.015625 233.679688 253.640625 234.09375 252.800781 L 246.519531 228.171875 C 246.933594 227.332031 247.453125 227.394531 247.957031 227.898438 L 254.40625 234.160156 C 254.976562 234.917969 255.597656 235.589844 255.183594 236.433594 L 242.753906 261.0625 C 242.34375 261.90625 241.9375 262 241.269531 261.328125 Z M 241.269531 261.328125 "/><path style=" stroke:none;fill-rule:nonzero;fill:#7f5603;fill-opacity:1;" d="M 249.964844 270.023438 L 243.5625 263.765625 C 242.570312 262.707031 242.375 262.335938 242.785156 261.496094 L 255.214844 236.863281 C 255.628906 236.023438 256.148438 236.085938 256.648438 236.589844 L 263.101562 242.851562 C 263.667969 243.609375 264.289062 244.285156 263.875 245.125 L 251.449219 269.753906 C 251.035156 270.597656 250.632812 270.691406 249.964844 270.023438 Z M 249.964844 270.023438 "/><path style=" stroke:none;fill-rule:nonzero;fill:#7f5603;fill-opacity:1;" d="M 264.007812 245.28125 L 255.648438 261.664062 L 272.042969 253.054688 C 272.882812 252.632812 272.976562 252.230469 272.296875 251.566406 L 266.664062 245.882812 C 265.589844 244.898438 264.007812 245.28125 264.007812 245.28125 Z M 264.007812 245.28125 "/><path style=" stroke:none;fill-rule:nonzero;fill:#7f5603;fill-opacity:1;" d="M 225.890625 244.613281 L 233.582031 228.230469 L 217.867188 236.589844 C 217.035156 237.019531 217.199219 237.257812 218 238.058594 L 223.367188 244.015625 C 224.445312 244.984375 225.890625 244.613281 225.890625 244.613281 Z M 225.890625 244.613281 "/><g clip-rule="nonzero" clip-path="url(#abce97b5c9)"><path style=" stroke:none;fill-rule:nonzero;fill:#5b5b5b;fill-opacity:1;" d="M 254.273438 275 L 262.964844 283.695312 L 269.332031 283.347656 L 283.347656 269.332031 L 283.695312 262.964844 L 275 254.273438 Z M 254.273438 275 "/></g><g clip-rule="nonzero" clip-path="url(#2f451a7c10)"><path style=" stroke:none;fill-rule:nonzero;fill:#919191;fill-opacity:1;" d="M 93.210938 184.714844 L 90.941406 203.949219 L 134.140625 247.148438 L 153.375 244.878906 L 161.382812 236.871094 L 101.21875 176.707031 Z M 93.210938 184.714844 "/></g><g clip-rule="nonzero" clip-path="url(#2440c8fdde)"><path style=" stroke:none;fill-rule:nonzero;fill:#919191;fill-opacity:1;" d="M 184.714844 93.210938 L 203.949219 90.941406 L 247.148438 134.140625 L 244.878906 153.375 L 236.871094 161.382812 L 176.707031 101.21875 Z M 184.714844 93.210938 "/></g><path style=" stroke:none;fill-rule:nonzero;fill:#5b5b5b;fill-opacity:1;" d="M 93.210938 184.71875 L 184.710938 93.214844 L 244.875 153.375 L 153.375 244.878906 Z M 93.210938 184.71875 "/></g></svg>